<svg width="308" height="474" viewBox="0 0 308 474" fill="none" xmlns="http://www.w3.org/2000/svg">
<circle cx="150" cy="222" r="150" fill="#008080"/>
<path d="M62.3438 220.641C62.3438 225.141 63.6562 228.891 66.2812 231.891C69 234.891 73.0312 236.391 78.375 236.391C83.7188 236.391 87.75 234.891 90.4688 231.891C93.2812 228.891 94.6875 225.141 94.6875 220.641C94.6875 216.328 93.2812 212.719 90.4688 209.812C87.75 206.906 83.7188 205.453 78.375 205.453C73.0312 205.453 69 206.906 66.2812 209.812C63.6562 212.719 62.3438 216.328 62.3438 220.641ZM138.281 220.641C138.281 225.141 139.594 228.891 142.219 231.891C144.938 234.891 148.969 236.391 154.312 236.391C159.656 236.391 163.688 234.891 166.406 231.891C169.219 228.891 170.625 225.141 170.625 220.641C170.625 216.328 169.219 212.719 166.406 209.812C163.688 206.906 159.656 205.453 154.312 205.453C148.969 205.453 144.938 206.906 142.219 209.812C139.594 212.719 138.281 216.328 138.281 220.641ZM214.219 220.641C214.219 225.141 215.531 228.891 218.156 231.891C220.875 234.891 224.906 236.391 230.25 236.391C235.594 236.391 239.625 234.891 242.344 231.891C245.156 228.891 246.562 225.141 246.562 220.641C246.562 216.328 245.156 212.719 242.344 209.812C239.625 206.906 235.594 205.453 230.25 205.453C224.906 205.453 220.875 206.906 218.156 209.812C215.531 212.719 214.219 216.328 214.219 220.641Z" fill="white"/>
</svg>
