<svg width="350" height="350" viewBox="0 0 350 350" fill="none" xmlns="http://www.w3.org/2000/svg">
<circle cx="175" cy="175" r="175" fill="white"/>
<path d="M88.25 178.359C88.25 173.859 89.5625 170.109 92.1875 167.109C94.9062 164.109 98.9375 162.609 104.281 162.609C109.625 162.609 113.656 164.109 116.375 167.109C119.188 170.109 120.594 173.859 120.594 178.359C120.594 182.672 119.188 186.281 116.375 189.188C113.656 192.094 109.625 193.547 104.281 193.547C98.9375 193.547 94.9062 192.094 92.1875 189.188C89.5625 186.281 88.25 182.672 88.25 178.359ZM164.188 178.359C164.188 173.859 165.5 170.109 168.125 167.109C170.844 164.109 174.875 162.609 180.219 162.609C185.562 162.609 189.594 164.109 192.312 167.109C195.125 170.109 196.531 173.859 196.531 178.359C196.531 182.672 195.125 186.281 192.312 189.188C189.594 192.094 185.562 193.547 180.219 193.547C174.875 193.547 170.844 192.094 168.125 189.188C165.5 186.281 164.188 182.672 164.188 178.359ZM240.125 178.359C240.125 173.859 241.438 170.109 244.062 167.109C246.781 164.109 250.812 162.609 256.156 162.609C261.5 162.609 265.531 164.109 268.25 167.109C271.062 170.109 272.469 173.859 272.469 178.359C272.469 182.672 271.062 186.281 268.25 189.188C265.531 192.094 261.5 193.547 256.156 193.547C250.812 193.547 246.781 192.094 244.062 189.188C241.438 186.281 240.125 182.672 240.125 178.359Z" fill="#008080"/>
</svg>
